<svg width="57" height="56" viewBox="0 0 57 56" fill="none" xmlns="http://www.w3.org/2000/svg">
<g clip-path="url(#clip0_1_572)">
<path d="M47.1667 4.66667H9.83335C7.26669 4.66667 5.19002 6.76667 5.19002 9.33333L5.16669 51.3333L14.5 42H47.1667C49.7334 42 51.8334 39.9 51.8334 37.3333V9.33333C51.8334 6.76667 49.7334 4.66667 47.1667 4.66667ZM14.5 32.6667V26.9033L30.5534 10.85C31.02 10.3833 31.7434 10.3833 32.21 10.85L36.34 14.98C36.8067 15.4467 36.8067 16.17 36.34 16.6367L20.2634 32.6667H14.5ZM42.5 32.6667H25L29.6667 28H42.5V32.6667Z" fill="#FFC34E"/>
</g>
<defs>
<clipPath id="clip0_1_572">
<rect width="56" height="56" fill="white" transform="translate(0.5)"/>
</clipPath>
</defs>
</svg>
