<svg width="38" height="36" viewBox="0 0 38 36" fill="none" xmlns="http://www.w3.org/2000/svg">
<path opacity="0.67" fill-rule="evenodd" clip-rule="evenodd" d="M19.3473 31.9956C18.9971 31.8591 18.6084 31.8591 18.2582 31.9956L9.01244 35.598C7.99456 35.9946 6.9077 35.2049 6.97034 34.1143L7.53932 24.2079C7.56088 23.8326 7.44077 23.463 7.20277 23.1721L0.919607 15.492C0.227883 14.6465 0.643028 13.3689 1.69962 13.0914L11.297 10.5713C11.6605 10.4758 11.975 10.2474 12.1781 9.93113L17.5406 1.58224C18.131 0.663095 19.4744 0.663096 20.0648 1.58224L25.4273 9.93113C25.6305 10.2474 25.9449 10.4758 26.3085 10.5713L35.9058 13.0914C36.9624 13.3689 37.3776 14.6465 36.6858 15.492L30.4027 23.1721C30.1647 23.463 30.0446 23.8326 30.0661 24.2079L30.6351 34.1143C30.6978 35.2049 29.6109 35.9946 28.593 35.598L19.3473 31.9956Z"/>
</svg>
